<?xml version="1.0" encoding="UTF-8"?>
<svg id="Layer_1" xmlns="http://www.w3.org/2000/svg" version="1.1" viewBox="0 0 100 69.5">
  <!-- Generator: Adobe Illustrator 29.1.0, SVG Export Plug-In . SVG Version: 2.1.0 Build 142)  -->
  <defs>
    <style>
      .st0 {
        fill: #fff;
      }

      .st1 {
        fill: #0a0a0a;
      }
    </style>
  </defs>
  <polygon class="st0" points="92.3 44.6 2.9 61 2.9 19.7 92.3 3.5 92.3 44.6"/>
  <path class="st1" d="M95.2,0L0,17.3v47.5l4.7,4.7,95.3-17.2V4.6L95.2,0ZM92.3,44.6L2.9,61V19.7L92.3,3.5v41.1Z"/>
  <path class="st1" d="M6.6,21.6v8.4l6.9-1.2v27l10-1.8v-27l6.9-1.2v-8.4l-23.9,4.2h0Z"/>
  <path class="st1" d="M51.2,13.8l-12.3,2.2.8,2.5-9,34.2,8.7-1.5,1.1-5.8,8.4-1.5,1.4,5.4,10.9-1.9-10-33.5h0ZM41.7,39.1l2.6-13.5,3.1,12.5-5.8,1Z"/>
  <path class="st1" d="M81.6,24.5c1.5-.2,3.2-2.1,4-3.3,1.1-1.8,1.7-4.1,1.7-6.1,0-2.4-1-5.7-3.7-6.1-2.5-.4-5.7.2-8.6.7-3.1.5-6.2,1.1-9.2,1.6-1.2.2-2.3.4-3.5.6v35.3l10.6-1.9c1.8-.4,3.6-.8,5.4-1.3,5.9-1.7,10.3-6.2,10.3-12.6s-2.3-7.4-7-6.9h0ZM72.1,15.7l2.2-.4c1.2-.2,2.2-.2,2.8.1.7.3,1,1.1,1,2.3v.8c0,1.3-.3,2.5-.9,3.5-.6,1-1.5,1.7-2.7,1.9l-2.4.5v-8.6h0ZM78.4,33.8c0,1.1-.3,2.1-1,3s-1.7,1.5-3.1,1.8l-2.3.5v-9.7l2.3-.5c1.1-.2,2-.1,2.8.2s1.2,1.2,1.2,2.5v2.1h0Z"/>
</svg>